<svg xmlns="http://www.w3.org/2000/svg" width="26" height="26" viewBox="0 0 26 26" fill="none">
  <path d="M15.4194 20.5837C16.3565 20.5837 16.8516 21.693 16.2265 22.3907C15.8201 22.8446 15.3225 23.2078 14.7662 23.4564C14.2099 23.7051 13.6075 23.8336 12.9982 23.8337C12.3888 23.8336 11.7864 23.7051 11.2301 23.4564C10.6738 23.2078 10.1762 22.8446 9.76982 22.3907C9.17182 21.7233 9.59865 20.6801 10.4567 20.5912L10.5758 20.5847L15.4194 20.5837ZM12.9982 2.16699C14.4693 2.16699 15.713 3.14524 16.1127 4.48641L16.1626 4.67166L16.1712 4.71824C17.3657 5.39176 18.3835 6.33876 19.1412 7.4816C19.899 8.62445 20.3751 9.9306 20.5306 11.293L20.5609 11.6039L20.5815 11.917V15.0922L20.6042 15.2396C20.7526 16.0378 21.1943 16.7516 21.8425 17.2405L22.0234 17.3672L22.1989 17.4745C23.1306 18.0021 22.8056 19.3877 21.7905 19.4938L21.6648 19.5003H4.33149C3.21782 19.5003 2.8289 18.0227 3.7974 17.4745C4.21018 17.2409 4.56684 16.9198 4.84232 16.5337C5.1178 16.1476 5.30544 15.7059 5.39207 15.2396L5.41482 15.0847L5.4159 11.8672C5.48196 10.4522 5.89383 9.07499 6.61546 7.85608C7.3371 6.63718 8.3465 5.61373 9.55532 4.87533L9.82399 4.71716L9.83482 4.67058C9.98764 4.02256 10.3358 3.43711 10.8322 2.99341C11.3286 2.54971 11.9493 2.26917 12.6103 2.18974L12.8075 2.17133L12.9982 2.16699Z" fill="#B3B3B3"/>
</svg>