<svg xmlns="http://www.w3.org/2000/svg" width="14" height="15" viewBox="0 0 14 15" fill="none">
  <path d="M13.5 11.0003C13.4997 13.1171 11.7838 14.8331 9.66699 14.8333H4.33301C2.21623 14.8331 0.500264 13.1171 0.5 11.0003V6.16632H13.5V11.0003ZM3.33301 10.5003C3.05687 10.5003 2.83301 10.7242 2.83301 11.0003C2.83327 11.2762 3.05703 11.5003 3.33301 11.5003H4L4.10059 11.4896C4.32818 11.4429 4.49977 11.2416 4.5 11.0003C4.5 10.7587 4.32835 10.5568 4.10059 10.5101L4 10.5003H3.33301ZM6.66602 10.5003C6.39002 10.5005 6.16602 10.7243 6.16602 11.0003C6.16628 11.2761 6.39019 11.5001 6.66602 11.5003H7.33301L7.43359 11.4896C7.66119 11.4429 7.83278 11.2416 7.83301 11.0003C7.83301 10.7587 7.66136 10.5568 7.43359 10.5101L7.33301 10.5003H6.66602ZM10 10.5003C9.72386 10.5003 9.5 10.7242 9.5 11.0003C9.50026 11.2762 9.72402 11.5003 10 11.5003H10.667L10.7676 11.4896C10.995 11.4428 11.1668 11.2415 11.167 11.0003C11.167 10.7588 10.9952 10.5569 10.7676 10.5101L10.667 10.5003H10ZM3.33301 7.83331C3.05699 7.8334 2.8331 8.0573 2.83301 8.33331C2.83327 8.60918 3.0571 8.83322 3.33301 8.83331H4L4.10059 8.82257C4.32818 8.77591 4.49977 8.57465 4.5 8.33331C4.49992 8.09182 4.3283 7.88975 4.10059 7.84308L4 7.83331H3.33301ZM6.66699 7.83331C6.3909 7.83331 6.16708 8.05725 6.16699 8.33331C6.16726 8.60923 6.39101 8.83331 6.66699 8.83331H7.33398L7.43457 8.82257C7.66192 8.77571 7.83375 8.57448 7.83398 8.33331C7.83391 8.09197 7.66207 7.88992 7.43457 7.84308L7.33398 7.83331H6.66699ZM10 7.83331C9.72391 7.83331 9.50009 8.05725 9.5 8.33331C9.50026 8.60923 9.72402 8.83331 10 8.83331H10.667L10.7676 8.82257C10.9951 8.77583 11.1668 8.57459 11.167 8.33331C11.1669 8.09186 10.9952 7.8898 10.7676 7.84308L10.667 7.83331H10ZM9.5 3.33331L9.51074 3.4339C9.55738 3.66159 9.75855 3.83316 10 3.83331C10.2759 3.83314 10.4999 3.60927 10.5 3.33331V1.92511C12.0571 2.27047 13.2576 3.56215 13.4668 5.16632H0.533203C0.742353 3.56215 1.94292 2.27047 3.5 1.92511V3.33331L3.51074 3.4339C3.55738 3.66159 3.75855 3.83316 4 3.83331C4.27594 3.83314 4.49991 3.60927 4.5 3.33331V1.83331H9.5V3.33331ZM10 0.833313C10.276 0.833489 10.5 1.05728 10.5 1.33331V1.92511C10.2318 1.86561 9.95316 1.83334 9.66699 1.83331H9.5V1.33331C9.5 1.05728 9.72401 0.833489 10 0.833313ZM4 0.833313C4.27599 0.833489 4.5 1.05728 4.5 1.33331V1.83331H4.33301C4.04684 1.83334 3.76824 1.86561 3.5 1.92511V1.33331C3.5 1.05728 3.72401 0.833489 4 0.833313Z" fill="#ACACAC"/>
</svg>