<svg xmlns="http://www.w3.org/2000/svg" width="21" height="22" viewBox="0 0 21 22" fill="none">
  <path d="M16.8486 0.166992C18.6433 0.167243 20.0986 1.62224 20.0986 3.41699V18.583C20.0986 20.3778 18.6433 21.8328 16.8486 21.833H3.65137C1.85656 21.8329 0.401367 20.3778 0.401367 18.583V3.41699C0.401388 1.62217 1.85657 0.167124 3.65137 0.166992H16.8486ZM4.49316 16.0234C3.89493 16.0234 3.40931 16.5082 3.40918 17.1064V17.2207C3.40918 17.8188 3.8941 18.3034 4.49219 18.3037H16.0098C16.6081 18.3037 17.0938 17.819 17.0938 17.2207V17.1064C17.0936 16.5082 16.608 16.0234 16.0098 16.0234H4.49316ZM4.49316 11.7266C3.8949 11.7266 3.40926 12.2113 3.40918 12.8096V12.9238C3.40922 13.5219 3.89413 14.0066 4.49219 14.0068H16.0098C16.608 14.0068 17.0937 13.5221 17.0938 12.9238V12.8096C17.0937 12.2113 16.608 11.7266 16.0098 11.7266H4.49316ZM4.53906 3.35059C3.94079 3.35059 3.45514 3.83534 3.45508 4.43359V7.96875C3.45508 8.56706 3.94075 9.05176 4.53906 9.05176H11.4951C12.0933 9.0516 12.5781 8.56696 12.5781 7.96875V4.43359C12.5781 3.83544 12.0933 3.35074 11.4951 3.35059H4.53906Z" fill="#B3B3B3"/>
</svg>