<svg xmlns="http://www.w3.org/2000/svg" width="11" height="13" viewBox="0 0 11 13" fill="none">
  <path d="M0.333336 1.37366C0.333336 1.3432 0.348976 1.23462 0.556228 1.05962C0.76075 0.886926 1.09161 0.704882 1.55197 0.540466C2.46757 0.213467 3.77116 0 5.23925 0C6.70734 0 8.01093 0.213467 8.92653 0.540466C9.38689 0.704882 9.71775 0.886926 9.92227 1.05962C10.1295 1.23462 10.1452 1.3432 10.1452 1.37366C10.1452 1.40411 10.1295 1.51269 9.92227 1.68769C9.71775 1.86039 9.38689 2.04243 8.92653 2.20685C8.01093 2.53384 6.70734 2.74731 5.23925 2.74731C3.77116 2.74731 2.46757 2.53384 1.55197 2.20685C1.09161 2.04243 0.76075 1.86039 0.556228 1.68769C0.348976 1.51269 0.333336 1.40411 0.333336 1.37366Z" fill="#ACACAC"/>
  <path d="M9.32254 3.31567C9.52792 3.24232 9.7244 3.16156 9.90845 3.07304C10.0162 3.0212 10.1452 3.09774 10.1452 3.21734V4.51344C10.1452 4.54389 10.1295 4.65248 9.92227 4.82748C9.71775 5.00017 9.38689 5.18222 8.92653 5.34663C8.01093 5.67363 6.70734 5.8871 5.23925 5.8871C3.77116 5.8871 2.46757 5.67363 1.55197 5.34663C1.09161 5.18222 0.76075 5.00017 0.556228 4.82748C0.348976 4.65248 0.333336 4.54389 0.333336 4.51344V3.21734C0.333336 3.09774 0.462259 3.0212 0.570047 3.07304C0.754096 3.16156 0.950578 3.24232 1.15596 3.31567C2.22902 3.69891 3.67274 3.92473 5.23925 3.92473C6.80576 3.92473 8.24948 3.69891 9.32254 3.31567Z" fill="#ACACAC"/>
  <path d="M9.32254 6.45546C9.52792 6.3821 9.7244 6.30134 9.90845 6.21283C10.0162 6.16099 10.1452 6.23752 10.1452 6.35713V7.65323C10.1452 7.68368 10.1295 7.79226 9.92227 7.96726C9.71775 8.13996 9.38689 8.322 8.92653 8.48642C8.01093 8.81342 6.70734 9.02688 5.23925 9.02688C3.77116 9.02688 2.46757 8.81342 1.55197 8.48642C1.09161 8.322 0.76075 8.13996 0.556228 7.96726C0.348976 7.79226 0.333336 7.68368 0.333336 7.65323V6.35713C0.333336 6.23752 0.462259 6.16099 0.570048 6.21283C0.754097 6.30134 0.950578 6.3821 1.15596 6.45546C2.22902 6.83869 3.67274 7.06452 5.23925 7.06452C6.80576 7.06452 8.24948 6.83869 9.32254 6.45546Z" fill="#ACACAC"/>
  <path d="M9.32254 9.59524C9.52792 9.52189 9.7244 9.44113 9.90845 9.35261C10.0162 9.30077 10.1452 9.37731 10.1452 9.49691V10.793C10.1452 10.8235 10.1295 10.932 9.92227 11.107C9.71775 11.2797 9.38689 11.4618 8.92653 11.6262C8.01093 11.9532 6.70734 12.1667 5.23925 12.1667C3.77116 12.1667 2.46757 11.9532 1.55197 11.6262C1.09161 11.4618 0.76075 11.2797 0.556228 11.107C0.348976 10.932 0.333336 10.8235 0.333336 10.793V9.49691C0.333336 9.37731 0.462259 9.30077 0.570048 9.35261C0.754097 9.44113 0.950578 9.52189 1.15596 9.59524C2.22902 9.97848 3.67274 10.2043 5.23925 10.2043C6.80576 10.2043 8.24948 9.97848 9.32254 9.59524Z" fill="#ACACAC"/>
</svg>