<svg xmlns="http://www.w3.org/2000/svg" width="34" height="34" viewBox="0 0 34 34" fill="none">
  <path d="M9.11875 2.96748C10.5118 2.73012 11.9404 2.80842 13.2992 3.19661C14.658 3.58479 15.9123 4.67727 16.9698 5.61471L17.028 5.66665L17.0815 5.61943C18.0908 4.73374 19.2773 3.66916 20.5619 3.27832C21.8465 2.88748 23.1997 2.77507 24.5312 2.9486L24.9184 3.00526C26.5967 3.29504 28.1654 4.03331 29.4585 5.14189C30.7515 6.25047 31.7206 7.68808 32.2633 9.3025C32.8059 10.9169 32.9019 12.648 32.541 14.3125C32.1801 15.977 31.3758 17.513 30.2132 18.7577L29.9299 19.0488L29.8544 19.1134L18.1282 30.7278C17.8576 30.9956 17.4991 31.1563 17.1191 31.18C16.7391 31.2037 16.3634 31.0889 16.0616 30.8568L15.9136 30.7278L4.11979 19.0457C2.87039 17.83 1.98185 16.2923 1.55256 14.6028C1.12327 12.9132 1.16999 11.1379 1.68755 9.47324C2.2051 7.80863 3.17329 6.31974 4.48489 5.17148C5.79649 4.02322 7.40032 3.2604 9.11875 2.96748Z" fill="#68C76F"/>
</svg>