<svg width="121" height="38" viewBox="0 0 121 38" fill="none" xmlns="http://www.w3.org/2000/svg">
<path d="M30.76 17.3823C30.76 19.1607 29.3184 20.6023 27.54 20.6023H3.22C1.44164 20.6023 0 19.1607 0 17.3823C0 15.6039 1.44164 14.1623 3.22 14.1623H27.54C29.3184 14.1623 30.76 15.6039 30.76 17.3823ZM2.28 7.9431C2.28 5.85926 4.15616 4.3223 6.24 4.3223C8.45333 4.3223 10.4533 4.0023 12.24 3.3623C14.0533 2.7223 15.52 1.93563 16.64 1.0023H21.04C21.12 1.58896 21.1467 2.10896 21.12 2.5623H24.64C25.7446 2.5623 26.64 3.45773 26.64 4.5623V9.4823C26.64 10.549 26.2533 11.429 25.48 12.1223C24.7333 12.8156 23.8 13.1623 22.68 13.1623C21.5867 13.1623 20.6667 12.8156 19.92 12.1223C19.1733 11.4023 18.8 10.5223 18.8 9.4823V7.2023C17.2267 8.8823 15.12 10.2823 12.48 11.4023C9.84 12.4956 7.26667 13.0423 4.76 13.0423C3.30889 13.0423 2.28 11.7578 2.28 10.3067V7.9431ZM3.48 31.3423C3.48 28.5698 5.72753 26.3223 8.5 26.3223H17V25.6423H5.5C4.38439 25.6423 3.48 24.7379 3.48 23.6223C3.48 22.5067 4.38439 21.6023 5.5 21.6023H22.08C23.9136 21.6023 25.4 23.0887 25.4 24.9223C25.4 26.7559 23.9136 28.2423 22.08 28.2423H11.92V28.9223H23.84C25.8945 28.9223 27.56 30.5878 27.56 32.6423C27.56 34.6968 25.8945 36.3623 23.84 36.3623H8.5C5.72753 36.3623 3.48 34.1148 3.48 31.3423Z" fill="black"/>
<path d="M47.2841 37.2023C42.9107 37.2023 39.7374 36.5223 37.7641 35.1623C35.7907 33.8023 34.8041 32.0023 34.8041 29.7623C34.8041 27.5223 35.7907 25.7223 37.7641 24.3623C39.7374 23.0023 42.9107 22.3223 47.2841 22.3223C51.6307 22.3223 54.7907 23.0023 56.7641 24.3623C58.7641 25.7223 59.7641 27.5223 59.7641 29.7623C59.7641 32.0023 58.7641 33.8023 56.7641 35.1623C54.7907 36.5223 51.6307 37.2023 47.2841 37.2023ZM31.7641 15.8023C31.7641 12.599 34.3608 10.0023 37.5641 10.0023H39.2441V8.0023H34.9641C33.1968 8.0023 31.7641 6.56961 31.7641 4.8023C31.7641 3.03499 33.1968 1.6023 34.9641 1.6023H41.9841C44.9112 1.6023 47.2841 3.97519 47.2841 6.9023C47.2841 9.82941 44.9112 12.2023 41.9841 12.2023H39.8041V14.5623C41.9374 14.509 43.8441 14.4156 45.5241 14.2823C47.2307 14.149 49.0441 13.909 50.9641 13.5623V12.2423H49.6441C49.0918 12.2423 48.6441 11.7946 48.6441 11.2423V5.3223C48.6441 4.77001 49.0918 4.3223 49.6441 4.3223H50.9641V4.20229C50.9641 1.8827 52.8445 0.00229593 55.1641 0.00229593C57.4837 0.00229593 59.3641 1.8827 59.3641 4.20229V17.8023C59.3641 20.0114 57.5732 21.8023 55.3641 21.8023H52.2441C51.5371 21.8023 50.9641 21.2292 50.9641 20.5223C48.7241 20.9223 46.0441 21.2023 42.9241 21.3623C41.3 21.4456 39.5133 21.5072 37.5641 21.5471C34.3615 21.6127 31.7641 19.0056 31.7641 15.8023ZM45.4041 29.7623C45.4041 31.149 46.0307 31.8423 47.2841 31.8423C48.5374 31.8423 49.1641 31.149 49.1641 29.7623C49.1641 28.3756 48.5374 27.6823 47.2841 27.6823C46.0307 27.6823 45.4041 28.3756 45.4041 29.7623Z" fill="black"/>
<path d="M91.76 17.38C91.76 19.1584 90.3184 20.6 88.54 20.6H64.22C62.4416 20.6 61 19.1584 61 17.38C61 15.6016 62.4416 14.16 64.22 14.16H88.54C90.3184 14.16 91.76 15.6016 91.76 17.38ZM63.28 7.9408C63.28 5.85696 65.1562 4.32 67.24 4.32C69.4533 4.32 71.4533 4 73.24 3.36C75.0533 2.72 76.52 1.93333 77.64 1H82.04C82.12 1.58667 82.1467 2.10667 82.12 2.56H85.64C86.7446 2.56 87.64 3.45543 87.64 4.56V9.48C87.64 10.5467 87.2533 11.4267 86.48 12.12C85.7333 12.8133 84.8 13.16 83.68 13.16C82.5867 13.16 81.6667 12.8133 80.92 12.12C80.1733 11.4 79.8 10.52 79.8 9.48V7.2C78.2267 8.88 76.12 10.28 73.48 11.4C70.84 12.4933 68.2667 13.04 65.76 13.04C64.3089 13.04 63.28 11.7555 63.28 10.3044V7.9408ZM64.48 31.34C64.48 28.5675 66.7275 26.32 69.5 26.32H78V25.64H66.5C65.3844 25.64 64.48 24.7356 64.48 23.62C64.48 22.5044 65.3844 21.6 66.5 21.6H83.08C84.9136 21.6 86.4 23.0864 86.4 24.92C86.4 26.7536 84.9136 28.24 83.08 28.24H72.92V28.92H84.84C86.8945 28.92 88.56 30.5855 88.56 32.64C88.56 34.6945 86.8945 36.36 84.84 36.36H69.5C66.7275 36.36 64.48 34.1125 64.48 31.34Z" fill="black"/>
<path d="M108.52 37.1999C104.147 37.1999 100.973 36.5199 99 35.1599C97.0267 33.7999 96.04 31.9999 96.04 29.7599C96.04 27.5199 97.0267 25.7199 99 24.3599C100.973 22.9999 104.147 22.3199 108.52 22.3199C112.867 22.3199 116.027 22.9999 118 24.3599C120 25.7199 121 27.5199 121 29.7599C121 31.9999 120 33.7999 118 35.1599C116.027 36.5199 112.867 37.1999 108.52 37.1999ZM93 15.7999C93 12.5967 95.5967 9.99991 98.8 9.99991H100.48V7.99991H96.2C94.4327 7.99991 93 6.56722 93 4.79991C93 3.0326 94.4327 1.59991 96.2 1.59991H103.22C106.147 1.59991 108.52 3.9728 108.52 6.89991C108.52 9.82702 106.147 12.1999 103.22 12.1999H101.04V14.5599C103.173 14.5066 105.08 14.4132 106.76 14.2799C108.467 14.1466 110.28 13.9066 112.2 13.5599V12.2399H110.88C110.328 12.2399 109.88 11.7922 109.88 11.2399V5.31991C109.88 4.76763 110.328 4.31991 110.88 4.31991H112.2V4.19991C112.2 1.88032 114.08 -8.7738e-05 116.4 -8.7738e-05C118.72 -8.7738e-05 120.6 1.88032 120.6 4.19991V17.7999C120.6 20.0091 118.809 21.7999 116.6 21.7999H113.48C112.773 21.7999 112.2 21.2268 112.2 20.5199C109.96 20.9199 107.28 21.1999 104.16 21.3599C102.536 21.4432 100.749 21.5048 98.8 21.5447C95.5975 21.6104 93 19.0032 93 15.7999ZM106.64 29.7599C106.64 31.1466 107.267 31.8399 108.52 31.8399C109.773 31.8399 110.4 31.1466 110.4 29.7599C110.4 28.3732 109.773 27.6799 108.52 27.6799C107.267 27.6799 106.64 28.3732 106.64 29.7599Z" fill="black"/>
</svg>
