<svg xmlns="http://www.w3.org/2000/svg" width="26" height="26" viewBox="0 0 26 26" fill="none">
  <path d="M12.8 0.354997L11.049 9.21936C11.0114 9.40978 10.7871 9.49478 10.6327 9.37715L6.89215 6.52718C6.65157 6.34389 6.34306 6.6461 6.52136 6.89041L9.24616 10.624C9.35919 10.7789 9.27324 10.9987 9.08514 11.0359L0.211443 12.7887C-0.0721963 12.8447 -0.069775 13.2512 0.214511 13.3039L8.95535 14.9663C9.14213 15.0018 9.23023 15.218 9.12144 15.374L6.37776 19.3066C6.20656 19.552 6.5138 19.8466 6.75179 19.6653L10.592 16.7394C10.7464 16.6218 10.9706 16.7068 11.0082 16.8972L12.7592 25.7615C12.8153 26.0452 13.2218 26.0428 13.2744 25.7585L14.9142 16.9037C14.9498 16.7115 15.1755 16.6243 15.331 16.7428L19.1668 19.6653C19.4048 19.8466 19.712 19.552 19.5408 19.3066L16.748 15.356C16.6375 15.1997 16.7262 14.9815 16.9144 14.9467L25.7855 13.3039C26.0698 13.2512 26.0722 12.8447 25.7886 12.7887L16.9149 11.0359C16.7268 10.9987 16.6408 10.7789 16.7538 10.624L19.4786 6.8904C19.6569 6.6461 19.3484 6.34388 19.1079 6.52718L15.3717 9.37374C15.2163 9.49219 14.9905 9.40507 14.9549 9.21288L13.3151 0.358066C13.2625 0.0737798 12.856 0.0713583 12.8 0.354997Z" fill="url(#paint0_linear_3_96)"/>
  <defs>
    <linearGradient id="paint0_linear_3_96" x1="13" y1="-1.1335" x2="13" y2="25.8291" gradientUnits="userSpaceOnUse">
      <stop offset="1" stop-color="#6BD747"/>
    </linearGradient>
  </defs>
</svg>