<svg xmlns="http://www.w3.org/2000/svg" width="26" height="26" viewBox="0 0 26 26" fill="none">
  <path d="M3.87402 4.77051C4.45354 4.503 5.04508 4.4968 5.5791 4.58887C6.10235 4.67987 6.61922 4.874 7.07422 5.0625C7.22584 5.12531 7.37114 5.18591 7.50977 5.24512C7.813 5.37507 8.09019 5.49215 8.375 5.5918C8.39574 5.59915 8.41723 5.60437 8.4375 5.61133V23.0645C8.34512 23.0529 8.25131 23.0435 8.1582 23.0293C7.49653 22.9243 6.84315 22.7722 6.20312 22.5742C5.55158 22.3788 4.91987 22.1225 4.31641 21.8086C3.76941 21.5172 3.22441 21.14 2.88965 20.6602C2.62968 20.2865 2.52706 19.8813 2.48047 19.46C2.43714 19.0667 2.4375 18.5894 2.4375 18.0391V8.82715C2.4375 8.04065 2.43759 7.38122 2.49609 6.8623C2.5557 6.32627 2.68971 5.79974 3.06543 5.37305C3.29076 5.11846 3.56527 4.91242 3.87402 4.77051ZM15.4375 19.6836C14.7931 20.0057 14.1782 20.5147 13.4639 21.1074L13.3857 21.1719C12.5768 21.842 11.6207 22.6201 10.4375 22.9609V5.50977C11.1279 5.19305 11.776 4.65815 12.5361 4.02734L12.6143 3.96387C13.3946 3.31832 14.3115 2.5697 15.4375 2.21094V19.6836ZM17.4375 2.06152C17.8827 2.12946 18.3113 2.2488 18.707 2.38184C19.0905 2.51184 19.4678 2.66114 19.8145 2.7998L19.8701 2.82227C20.2027 2.95552 20.5058 3.07622 20.7939 3.1748L20.834 3.18945C21.3354 3.36272 21.7763 3.51464 22.125 3.68359C22.5052 3.86666 22.8482 4.10072 23.1104 4.47656C23.3703 4.84921 23.473 5.2544 23.5195 5.67578C23.5628 6.06895 23.5625 6.54664 23.5625 7.0957V16.3086C23.5625 17.095 23.5624 17.7536 23.5039 18.2725C23.4443 18.8085 23.3102 19.335 22.9346 19.7617C22.709 20.0155 22.4336 20.2206 22.126 20.3643C21.5464 20.6318 20.955 20.638 20.4209 20.5459C19.8977 20.456 19.3808 20.2617 18.9258 20.0732C18.7741 20.0104 18.6289 19.9489 18.4902 19.8896C18.187 19.7608 17.9098 19.6426 17.625 19.543C17.5605 19.52 17.4976 19.5004 17.4375 19.4814V2.06152Z" fill="#B3B3B3"/>
</svg>