<svg xmlns="http://www.w3.org/2000/svg" width="27" height="26" viewBox="0 0 27 26" fill="none">
  <path d="M6.3 24C6.3 24 4.5 24 4.5 22.1667C4.5 20.3333 6.3 14.8333 13.5 14.8333C20.7 14.8333 22.5 20.3333 22.5 22.1667C22.5 24 20.7 24 20.7 24H6.3ZM13.5 13C14.9322 13 16.3057 12.4205 17.3184 11.3891C18.3311 10.3576 18.9 8.95869 18.9 7.5C18.9 6.04131 18.3311 4.64236 17.3184 3.61091C16.3057 2.57946 14.9322 2 13.5 2C12.0678 2 10.6943 2.57946 9.68162 3.61091C8.66893 4.64236 8.1 6.04131 8.1 7.5C8.1 8.95869 8.66893 10.3576 9.68162 11.3891C10.6943 12.4205 12.0678 13 13.5 13Z" fill="#B3B3B3"/>
</svg>