<svg xmlns="http://www.w3.org/2000/svg" width="27" height="26" viewBox="0 0 27 26" fill="none">
  <path d="M23.5002 22.7502L18.7953 18.0453M18.7953 18.0453C19.6001 17.2405 20.2385 16.2851 20.6741 15.2336C21.1096 14.182 21.3338 13.055 21.3338 11.9169C21.3338 10.7787 21.1096 9.65173 20.6741 8.60021C20.2385 7.5487 19.6001 6.59327 18.7953 5.78847C17.9905 4.98368 17.0351 4.34528 15.9836 3.90973C14.932 3.47418 13.805 3.25 12.6669 3.25C11.5287 3.25 10.4017 3.47418 9.35021 3.90973C8.2987 4.34528 7.34327 4.98368 6.53847 5.78847C4.91312 7.41383 4 9.61829 4 11.9169C4 14.2155 4.91312 16.4199 6.53847 18.0453C8.16383 19.6707 10.3683 20.5838 12.6669 20.5838C14.9655 20.5838 17.1699 19.6707 18.7953 18.0453Z" stroke="#B3B3B3" stroke-width="2.16667" stroke-linecap="round" stroke-linejoin="round"/>
</svg>
